<svg width="604" height="140" viewBox="0 0 604 140" fill="none" xmlns="http://www.w3.org/2000/svg">
<path d="M177.04 57.272H195.976C200.44 57.272 203.872 57.608 206.272 58.28C208.72 58.904 210.448 59.936 211.456 61.376C212.464 62.768 212.968 64.736 212.968 67.28V73.04C212.968 74.336 212.44 75.56 211.384 76.712C210.376 77.864 209.176 78.656 207.784 79.088V79.448C209.608 79.64 211.264 80.432 212.752 81.824C214.288 83.168 215.056 84.68 215.056 86.36V93.56C215.056 97.352 213.544 100.04 210.52 101.624C207.496 103.208 202.816 104 196.48 104H177.04V57.272ZM195.976 76.28C197.752 76.28 199.072 76.136 199.936 75.848C200.8 75.56 201.376 75.104 201.664 74.48C202 73.808 202.168 72.848 202.168 71.6V69.296C202.168 68.192 202.024 67.376 201.736 66.848C201.448 66.272 200.848 65.864 199.936 65.624C199.072 65.384 197.68 65.264 195.76 65.264H188.272V76.28H195.976ZM196.264 96.008C199 96.008 200.944 95.696 202.096 95.072C203.248 94.448 203.824 93.44 203.824 92.048V88.304C203.824 86.576 203.368 85.352 202.456 84.632C201.592 83.912 200.032 83.552 197.776 83.552H188.272V96.008H196.264ZM220.871 69.152H230.879V75.272C230.879 74.168 231.335 73.088 232.247 72.032C233.159 70.976 234.311 70.112 235.703 69.44C237.143 68.768 238.559 68.432 239.951 68.432H243.695V77.144H240.095C237.119 77.144 234.911 77.6 233.471 78.512C232.079 79.424 231.383 80.936 231.383 83.048V104H220.871V69.152ZM264.752 104.72C262.592 104.72 260.816 104.648 259.424 104.504C258.032 104.36 256.544 104.072 254.96 103.64C253.232 103.16 251.84 102.488 250.784 101.624C249.728 100.712 248.84 99.44 248.12 97.808C247.4 96.224 247.04 94.304 247.04 92.048V81.752C247.04 79.448 247.4 77.432 248.12 75.704C248.84 73.976 249.776 72.632 250.928 71.672C251.936 70.856 253.256 70.184 254.888 69.656C256.568 69.08 258.2 68.72 259.784 68.576C261.608 68.48 263.264 68.432 264.752 68.432C266.96 68.432 268.712 68.504 270.008 68.648C271.352 68.744 272.816 69.032 274.4 69.512C276.128 70.04 277.52 70.76 278.576 71.672C279.68 72.584 280.616 73.88 281.384 75.56C282.104 77.288 282.464 79.352 282.464 81.752V92.048C282.464 94.208 282.104 96.104 281.384 97.736C280.712 99.368 279.824 100.64 278.72 101.552C277.76 102.368 276.44 103.04 274.76 103.568C273.128 104.048 271.52 104.36 269.936 104.504C268.496 104.648 266.768 104.72 264.752 104.72ZM264.752 98.168C266.72 98.168 268.208 98.024 269.216 97.736C270.224 97.4 270.92 96.896 271.304 96.224C271.736 95.552 271.952 94.568 271.952 93.272V80.096C271.952 78.176 271.448 76.832 270.44 76.064C269.432 75.296 267.536 74.912 264.752 74.912C261.968 74.912 260.072 75.296 259.064 76.064C258.056 76.832 257.552 78.176 257.552 80.096V93.272C257.552 94.568 257.744 95.552 258.128 96.224C258.56 96.896 259.28 97.4 260.288 97.736C261.296 98.024 262.784 98.168 264.752 98.168ZM285.186 69.152H295.914L302.394 94.424L309.306 69.152H319.602L326.802 94.424L332.994 69.152H343.218L331.842 104H321.186L314.274 80.456L307.506 104H296.85L285.186 69.152ZM360.013 104.72C356.269 104.72 351.685 104.36 346.261 103.64V96.656C352.933 97.664 357.565 98.168 360.157 98.168C362.365 98.168 363.997 97.952 365.053 97.52C366.109 97.088 366.637 96.296 366.637 95.144V92.984C366.637 91.784 366.301 90.944 365.629 90.464C364.957 89.936 363.637 89.672 361.669 89.672H357.133C353.437 89.672 350.581 88.952 348.565 87.512C346.549 86.024 345.541 83.864 345.541 81.032V76.784C345.541 73.76 346.981 71.624 349.861 70.376C352.741 69.08 357.085 68.432 362.893 68.432C365.197 68.432 369.325 68.648 375.277 69.08V75.776C367.789 75.2 363.565 74.912 362.605 74.912C359.773 74.912 357.925 75.104 357.061 75.488C356.293 75.92 355.909 76.712 355.909 77.864V79.736C355.909 80.36 356.221 80.912 356.845 81.392C357.469 81.824 358.381 82.04 359.581 82.04H364.189C372.733 82.04 377.005 84.824 377.005 90.392V94.784C377.005 96.464 376.693 97.928 376.069 99.176C375.445 100.424 374.629 101.408 373.621 102.128C372.661 102.8 371.413 103.328 369.877 103.712C368.389 104.096 366.829 104.36 365.197 104.504C363.709 104.648 361.981 104.72 360.013 104.72ZM400.865 104.72C388.529 104.72 382.361 100.952 382.361 93.416V80.888C382.361 76.52 383.753 73.352 386.537 71.384C389.369 69.416 393.713 68.432 399.569 68.432C405.089 68.432 409.121 69.392 411.665 71.312C414.257 73.184 415.553 76.376 415.553 80.888V89.384H392.945V92.552C392.945 94.568 393.665 96.008 395.105 96.872C396.545 97.736 399.137 98.168 402.881 98.168C406.337 98.168 410.225 97.664 414.545 96.656V103.352C410.273 104.264 405.713 104.72 400.865 104.72ZM405.545 83.408V78.368C405.545 77.216 405.065 76.352 404.105 75.776C403.193 75.2 401.633 74.912 399.425 74.912C396.881 74.912 395.177 75.2 394.313 75.776C393.401 76.4 392.945 77.264 392.945 78.368V83.408H405.545ZM422.148 69.152H432.156V75.272C432.156 74.168 432.612 73.088 433.524 72.032C434.436 70.976 435.588 70.112 436.98 69.44C438.42 68.768 439.836 68.432 441.228 68.432H444.972V77.144H441.372C438.396 77.144 436.188 77.6 434.748 78.512C433.356 79.424 432.66 80.936 432.66 83.048V104H422.148V69.152ZM466.965 104.72C462.549 104.72 459.045 104.264 456.453 103.352C453.909 102.44 452.085 101.048 450.981 99.176C449.877 97.256 449.325 94.736 449.325 91.616V53.6H459.837V72.608C460.461 71.024 461.613 69.944 463.293 69.368C464.973 68.744 467.589 68.432 471.141 68.432C474.165 68.432 476.589 68.672 478.413 69.152C480.285 69.632 481.701 70.4 482.661 71.456C483.573 72.512 484.197 73.688 484.533 74.984C484.869 76.232 485.037 77.96 485.037 80.168V91.616C485.037 96.32 483.621 99.68 480.789 101.696C477.957 103.712 473.349 104.72 466.965 104.72ZM467.109 98.168C469.173 98.168 470.733 98.024 471.789 97.736C472.845 97.448 473.565 96.944 473.949 96.224C474.333 95.504 474.525 94.424 474.525 92.984V80.096C474.525 78.512 474.357 77.384 474.021 76.712C473.685 75.992 473.013 75.512 472.005 75.272C470.997 75.032 469.341 74.912 467.037 74.912C465.069 74.912 463.557 75.08 462.501 75.416C461.493 75.752 460.797 76.28 460.413 77C460.029 77.72 459.837 78.752 459.837 80.096V92.984C459.837 94.424 460.005 95.504 460.341 96.224C460.725 96.944 461.421 97.448 462.429 97.736C463.485 98.024 465.045 98.168 467.109 98.168ZM501.694 104.72C498.43 104.72 495.982 104.432 494.35 103.856C492.766 103.232 491.638 102.152 490.966 100.616C490.342 99.032 490.03 96.68 490.03 93.56C490.03 90.776 490.366 88.592 491.038 87.008C491.758 85.424 492.886 84.296 494.422 83.624C496.006 82.904 498.166 82.544 500.902 82.544H512.71V80.168C512.71 78.68 512.494 77.576 512.062 76.856C511.678 76.136 510.934 75.632 509.83 75.344C508.774 75.056 507.166 74.912 505.006 74.912C502.03 74.912 497.95 75.2 492.766 75.776V69.152C496.558 68.672 500.998 68.432 506.086 68.432C510.55 68.432 513.982 68.768 516.382 69.44C518.83 70.112 520.582 71.264 521.638 72.896C522.694 74.528 523.222 76.904 523.222 80.024V104H512.926V100.832C512.11 102.224 511.006 103.208 509.614 103.784C508.222 104.408 505.582 104.72 501.694 104.72ZM505.798 98.168C507.91 98.168 509.422 98.096 510.334 97.952C511.006 97.856 511.462 97.712 511.702 97.52C511.99 97.328 512.23 97.016 512.422 96.584C512.614 96.248 512.71 95.744 512.71 95.072V88.304H505.51C503.878 88.304 502.726 88.424 502.054 88.664C501.382 88.856 500.926 89.288 500.686 89.96C500.446 90.584 500.326 91.712 500.326 93.344C500.326 94.928 500.446 96.032 500.686 96.656C500.926 97.28 501.382 97.688 502.054 97.88C502.774 98.072 504.022 98.168 505.798 98.168ZM544.063 104.72C540.319 104.72 535.735 104.36 530.311 103.64V96.656C536.983 97.664 541.615 98.168 544.207 98.168C546.415 98.168 548.047 97.952 549.103 97.52C550.159 97.088 550.687 96.296 550.687 95.144V92.984C550.687 91.784 550.351 90.944 549.679 90.464C549.007 89.936 547.687 89.672 545.719 89.672H541.183C537.487 89.672 534.631 88.952 532.615 87.512C530.599 86.024 529.591 83.864 529.591 81.032V76.784C529.591 73.76 531.031 71.624 533.911 70.376C536.791 69.08 541.135 68.432 546.943 68.432C549.247 68.432 553.375 68.648 559.327 69.08V75.776C551.839 75.2 547.615 74.912 546.655 74.912C543.823 74.912 541.975 75.104 541.111 75.488C540.343 75.92 539.959 76.712 539.959 77.864V79.736C539.959 80.36 540.271 80.912 540.895 81.392C541.519 81.824 542.431 82.04 543.631 82.04H548.239C556.783 82.04 561.055 84.824 561.055 90.392V94.784C561.055 96.464 560.743 97.928 560.119 99.176C559.495 100.424 558.679 101.408 557.671 102.128C556.711 102.8 555.463 103.328 553.927 103.712C552.439 104.096 550.879 104.36 549.247 104.504C547.759 104.648 546.031 104.72 544.063 104.72ZM584.915 104.72C572.579 104.72 566.411 100.952 566.411 93.416V80.888C566.411 76.52 567.803 73.352 570.587 71.384C573.419 69.416 577.763 68.432 583.619 68.432C589.139 68.432 593.171 69.392 595.715 71.312C598.307 73.184 599.603 76.376 599.603 80.888V89.384H576.995V92.552C576.995 94.568 577.715 96.008 579.155 96.872C580.595 97.736 583.187 98.168 586.931 98.168C590.387 98.168 594.275 97.664 598.595 96.656V103.352C594.323 104.264 589.763 104.72 584.915 104.72ZM589.595 83.408V78.368C589.595 77.216 589.115 76.352 588.155 75.776C587.243 75.2 585.683 74.912 583.475 74.912C580.931 74.912 579.227 75.2 578.363 75.776C577.451 76.4 576.995 77.264 576.995 78.368V83.408H589.595Z" fill="white"/>
<rect width="128" height="128" fill="#F21923"/>
<rect width="128" height="128" fill="black" fill-opacity="0.4"/>
<rect x="16" y="12" width="128" height="128" fill="url(#paint0_linear_277_801)"/>
<path d="M59 49H79.9205C84.8523 49 88.6439 49.3883 91.2955 50.1649C94 50.886 95.9091 52.0786 97.0227 53.7427C98.1364 55.3513 98.6932 57.6256 98.6932 60.5655V67.2219C98.6932 68.7196 98.1098 70.1341 96.9432 71.4653C95.8295 72.7966 94.5038 73.7119 92.9659 74.2111V74.6271C94.9811 74.849 96.8106 75.7643 98.4545 77.3729C100.152 78.926 101 80.6733 101 82.6148V90.9353C101 95.3174 99.3295 98.4237 95.9886 100.254C92.6477 102.085 87.4773 103 80.4773 103H59V49ZM79.9205 70.9661C81.8826 70.9661 83.3409 70.7997 84.2955 70.4669C85.25 70.1341 85.8864 69.6071 86.2045 68.886C86.5758 68.1094 86.7614 67 86.7614 65.5578V62.8952C86.7614 61.6194 86.6023 60.6764 86.2841 60.0663C85.9659 59.4006 85.303 58.9291 84.2955 58.6518C83.3409 58.3744 81.803 58.2357 79.6818 58.2357H71.4091V70.9661H79.9205ZM80.2386 93.7643C83.2614 93.7643 85.4091 93.4037 86.6818 92.6826C87.9545 91.9615 88.5909 90.7966 88.5909 89.188V84.8613C88.5909 82.8644 88.0871 81.4499 87.0795 80.6179C86.125 79.7858 84.4015 79.3698 81.9091 79.3698H71.4091V93.7643H80.2386Z" fill="white"/>
<path d="M0 0H128L144 12H16L0 0Z" fill="#F21923"/>
<path d="M0 0H128L144 12H16L0 0Z" fill="white" fill-opacity="0.4"/>
<path d="M0 128H16V140L0 128Z" fill="#F21923"/>
<path d="M0 128H16V140L0 128Z" fill="black" fill-opacity="0.4"/>
<defs>
<linearGradient id="paint0_linear_277_801" x1="80" y1="12" x2="80" y2="140" gradientUnits="userSpaceOnUse">
<stop stop-color="#F21923"/>
<stop offset="1" stop-color="#F21923"/>
</linearGradient>
</defs>
</svg>
